<svg width="37" height="44" viewBox="0 0 37 44" fill="none" xmlns="http://www.w3.org/2000/svg">
<path d="M18.5 42.5L2.87131 32.6763C1.70675 31.9442 1 30.6652 1 29.2897V14.5M18.5 42.5L33.673 32.6822C34.8122 31.9451 35.5 30.6807 35.5 29.3239V14.5M18.5 42.5V24.5M18.5 21L35.5 11M18.5 21L1 11M18.5 21V24.5M35.5 11L20.499 2.17588C19.2627 1.44866 17.7317 1.43903 16.4864 2.15065L1 11M35.5 11V14.5M1 11V14.5M8 11C9 9 13 9 14 11M23 11C24 9 28 9 29 11M1 14.5L18.5 24.5M18.5 24.5L35.5 14.5" stroke="white" stroke-width="2"/>
</svg>
